{"title":"I Love You, Man 2009 DVDRip XviD-brydon10","uid":5200320,"size":734572875,"categoryP":"video","categoryS":"movies","magnet":"?xt=urn:btih:b7eb72ea855b9697c4270ea577e1d3b59a6627f8&amp;dn=I+Love+You%2C+Man+2009+DVDRip+XviD-brydon10&amp;tr=udp%3A%2F%2Ftracker.openbittorrent.com%3A80&amp;tr=udp%3A%2F%2Fopen.demonii.com%3A1337&amp;tr=udp%3A%2F%2Ftracker.coppersurfer.tk%3A6969&amp;tr=udp%3A%2F%2Fexodus.desync.com%3A6969","seeders":0,"leechers":0,"uploader":"brydon100","files":-1,"time":1260127473,"description":"I Love You, Man (2009)\n\nPeter Klaven's world revolves around his real estate work and Zooey, his soon-to-be fiancÃƒÂ©e. After he pops the question, she calls her best friends and they go into wedding planning mode. Peter has no male friends and that poses problems: will he turn out to be a clingy guy, and who will be his best man? Zooey, her friends, and Peter's brother Robbie offer help that results in awkward moments. Then, at an open house Peter's hosting, he meets Sydney, an amiable, low-key guy. They trade business cards, and Peter calls him to meet for drinks. A friendship develops that's great at first but then threatens Peter's engagement and career. Can guys be friends and couples be in love?\n\nVideo\nID                               : 0\nFormat                           : MPEG-4 Visual\nFormat profile                   : AdvancedSimple@L5\nFormat settings, BVOP            : Yes\nFormat settings, QPel            : No\nFormat settings, GMC             : No warppoints\nFormat settings, Matrix          : Custom\nCodec ID                         : XVID\nCodec ID/Hint                    : XviD\nDuration                         : 1h 44mn\nBit rate                         : 813 Kbps\nWidth                            : 720 pixels\nHeight                           : 416 pixels\nDisplay aspect ratio             : 16:9\nFrame rate                       : 23.976 fps\nResolution                       : 24 bits\nColorimetry                      : 4:2:0\nScan type                        : Progressive\nBits/(Pixel*Frame)               : 0.113\nStream size                      : 609 MiB (87%)\nWriting library                  : XviD 1.2.1 (UTC 2008-12-04)\n\nAudio\nID                               : 1\nFormat                           : MPEG Audio\nFormat version                   : Version 1\nFormat profile                   : Layer 3\nFormat_Settings_Mode             : Joint stereo / MS Stereo\nCodec ID                         : 55\nCodec ID/Hint                    : MP3\nDuration                         : 1h 44mn\nBit rate mode                    : Variable\nBit rate                         : 109 Kbps\nNominal bit rate                 : 128 Kbps\nChannel(s)                       : 2 channels\nSampling rate                    : 48.0 KHz\nResolution                       : 16 bits\nStream size                      : 81.7 MiB (12%)\nAlignment                        : Aligned on interleaves\nInterleave, duration             : 24 ms (0.58 video frame)\nInterleave, preload duration     : 169 ms\nWriting library                  : LAME3.98r\nEncoding settings                : -m j -V 4 -q 2 -lowpass 17 --abr 128\nLanguage                         : English\n\n","torrent":{"xt":"urn:btih:b7eb72ea855b9697c4270ea577e1d3b59a6627f8","amp;dn":"I+Love+You%2C+Man+2009+DVDRip+XviD-brydon10","amp;tr":["udp%3A%2F%2Ftracker.openbittorrent.com%3A80","udp%3A%2F%2Fopen.demonii.com%3A1337","udp%3A%2F%2Ftracker.coppersurfer.tk%3A6969","udp%3A%2F%2Fexodus.desync.com%3A6969"],"infoHash":"b7eb72ea855b9697c4270ea577e1d3b59a6627f8","infoHashBuffer":{"type":"Buffer","data":[183,235,114,234,133,91,150,151,196,39,14,165,119,225,211,181,154,102,39,248]},"announce":[],"urlList":[]}}